<svg xmlns="http://www.w3.org/2000/svg" viewBox="0 0 491.25 193.47"><defs><style>.cls-1{fill:#264653;}</style></defs><g id="Layer_2" data-name="Layer 2"><g id="Layer_2-2" data-name="Layer 2"><path class="cls-1" d="M55,91.93c-7.15,0-11.62-4.08-11.62-11.49V52.35c0-11.24-6.13-15.7-13.66-15.7-5.36,0-12.38,4.08-12.38,16.21V91.93H11.75C3.7,91.93,0,87.46,0,80.44V0H5.36c8.17,0,12.13,4.6,12.13,11V30.64c2.56-4.08,8.43-9.19,14.94-9.19,17.75,0,28.22,10.6,28.22,30.13V91.93Z"/><path class="cls-1" d="M103,64.86H91.81C93.08,73.55,101,79,111.09,79c7.15,0,15.57-1.41,21.06-6.51h.64v5.36c0,8.81-6,15.58-24.9,15.58-17.11,0-33.83-13.54-33.83-34.61,0-23,14-37.41,33.71-37.41,14.3,0,27.58,10.22,27.58,26.69C135.35,60.78,125.77,64.86,103,64.86Zm3.19-29.11c-8.3,0-14,6.77-14.42,14.69l-.13,2.29h7.66c16.21,0,19.92-1.78,19.92-6.64C119.26,39.2,114.15,35.75,106.23,35.75Z"/><path class="cls-1" d="M171,92.57c-14.17,0-21.83-7.53-21.83-21.45V0H154c8.55,0,12.26,5,12.26,11.49v58c0,6.9,3.57,9.07,11.62,9.07h4.59v3.7C182.46,89.64,178.5,92.57,171,92.57Z"/><path class="cls-1" d="M212.6,92.57c-14.18,0-21.84-7.53-21.84-21.45V0h4.85c8.56,0,12.26,5,12.26,11.49v58c0,6.9,3.58,9.07,11.62,9.07h4.6v3.7C224.09,89.64,220.13,92.57,212.6,92.57Z"/><path class="cls-1" d="M262.65,21.45c20.68,0,32.56,16.6,32.56,34.86,0,20.68-11.88,37.16-34.09,37.16-20.69,0-32.56-16.48-32.56-34.73C228.56,38.05,240.43,21.45,262.65,21.45Zm-1.53,15.32c-9.84,0-14.82,8.18-14.82,19.54,0,13.66,5,21.83,16.35,21.83,10,0,14.81-8.17,14.81-19.4C277.46,45,272.35,36.77,261.12,36.77Z"/><path class="cls-1" d="M243.42,158.86c-5.11,14.56-11.5,27.2-16,33.84h-2.81c-5.37,0-9.45-5-11.75-9.19-4.21-7.66-9.45-20.43-11.36-30.9-2.17,10.47-10.22,31.79-16.35,40.09h-2.3c-5.1,0-10-5.11-12.25-9.19C160.68,165.89,154,146,151,123h9.2a10,10,0,0,1,10,8.3c2,11.75,5.23,24.77,11,37.29,6.25-13.67,9.7-28.48,13-43h5.62c5.23,0,10.47,2.17,12.13,9.7,2,9.32,6.25,23.62,11.11,33.33,6.51-14.43,10.21-30.39,12.89-46H243c4.86,0,8.3,2.17,8.3,7.41C251.33,132.69,248.52,144.56,243.42,158.86Z"/><path class="cls-1" d="M292.45,121.45c20.68,0,32.56,16.6,32.56,34.86,0,20.68-11.88,37.16-34.09,37.16-20.69,0-32.56-16.48-32.56-34.73C258.36,138.05,270.23,121.45,292.45,121.45Zm-1.53,15.32c-9.83,0-14.81,8.18-14.81,19.54,0,13.66,5,21.83,16.34,21.83,10,0,14.81-8.17,14.81-19.4C307.26,145,302.15,136.77,290.92,136.77Z"/><path class="cls-1" d="M377.49,139.71a24.81,24.81,0,0,0-10-2c-7.66,0-11.88,4.21-11.88,14.68v39.58h-4.72c-7.66,0-12.51-3.83-12.51-11V149.29c0-13.79,7.27-26.94,25.41-26.94,10.59,0,14.3,6,14.3,11.23v6.13Z"/><path class="cls-1" d="M410.17,192.57c-14.17,0-21.83-7.53-21.83-21.45V100h4.85c8.56,0,12.26,5,12.26,11.49v58c0,6.9,3.58,9.07,11.62,9.07h4.6v3.7C421.67,189.64,417.71,192.57,410.17,192.57Z"/><path class="cls-1" d="M458.18,193.47c-18.13,0-32.05-15.84-32.05-34.73,0-22.6,11-37.29,31-37.29,6.9,0,14.43,4.85,17.11,10.85V100h5.24c8.17,0,11.74,4.72,11.74,11.62v48.52C491.25,180.19,481.8,193.47,458.18,193.47Zm-.89-57.59c-8.68,0-14.3,8.43-14.3,19.54,0,14.3,7.4,23.62,17.24,23.62,9.57,0,13.79-7.15,13.79-19.67C474,142.14,466.48,135.88,457.29,135.88Z"/></g></g></svg>